<?xml version="1.0" encoding="UTF-8"?>
<svg xmlns="http://www.w3.org/2000/svg" xmlns:xlink="http://www.w3.org/1999/xlink" width="375pt" height="374.999991pt" viewBox="0 0 375 374.999991" version="1.2">
<g id="surface1">
<path style=" stroke:none;fill-rule:nonzero;fill:rgb(0%,0%,0%);fill-opacity:1;" d="M 187.925781 213.304688 L 187.925781 190.496094 L 61.605469 190.496094 L 61.605469 261.492188 L 187.925781 261.492188 Z M 61.605469 261.492188 L 187.925781 337.992188 L 187.925781 261.492188 Z M 61.605469 113.996094 L 187.925781 113.996094 L 187.925781 190.496094 L 61.605469 190.496094 Z M 61.605469 113.996094 "/>
<path style=" stroke:none;fill-rule:nonzero;fill:rgb(0%,0%,0%);fill-opacity:1;" d="M 187.925781 190.496094 L 187.925781 261.492188 L 314.246094 261.492188 L 314.246094 190.496094 Z M 187.925781 113.996094 L 314.246094 113.996094 L 314.246094 190.496094 L 187.925781 190.496094 Z M 187.925781 337.992188 L 314.246094 261.492188 L 187.925781 261.492188 Z M 187.925781 337.992188 "/>
<path style=" stroke:none;fill-rule:nonzero;fill:rgb(0%,0%,0%);fill-opacity:1;" d="M 187.925781 190.496094 L 61.605469 113.996094 L 187.925781 37.5 L 314.246094 113.996094 Z M 187.925781 190.496094 "/>
<path style=" stroke:none;fill-rule:nonzero;fill:rgb(98.81897%,99.21875%,99.21875%);fill-opacity:1;" d="M 187.949219 211.269531 L 187.949219 190.0625 L 70.242188 190.0625 L 70.242188 256.082031 L 187.949219 256.082031 Z M 70.242188 256.082031 L 187.949219 327.21875 L 187.949219 256.082031 Z M 70.242188 118.925781 L 187.949219 118.925781 L 187.949219 190.0625 L 70.242188 190.0625 Z M 70.242188 118.925781 "/>
<path style=" stroke:none;fill-rule:nonzero;fill:rgb(5.879211%,46.269226%,95.289612%);fill-opacity:1;" d="M 187.949219 190.0625 L 187.949219 256.082031 L 305.660156 256.082031 L 305.660156 190.0625 Z M 187.949219 118.925781 L 305.660156 118.925781 L 305.660156 190.0625 L 187.949219 190.0625 Z M 187.949219 327.21875 L 305.660156 256.082031 L 187.949219 256.082031 Z M 187.949219 327.21875 "/>
<path style=" stroke:none;fill-rule:nonzero;fill:rgb(93.728638%,30.198669%,26.669312%);fill-opacity:1;" d="M 187.949219 190.0625 L 70.242188 118.925781 L 187.949219 47.792969 L 305.660156 118.925781 Z M 187.949219 190.0625 "/>
</g>
</svg>
