<?xml version="1.0" encoding="UTF-8"?>
<svg xmlns="http://www.w3.org/2000/svg" xmlns:xlink="http://www.w3.org/1999/xlink" width="224.87999pt" height="225pt" viewBox="0 0 224.87999 225" version="1.2">
<defs>
<clipPath id="clip1">
  <path d="M 93 189 L 133 189 L 133 224.9375 L 93 224.9375 Z M 93 189 "/>
</clipPath>
<clipPath id="clip2">
  <path d="M 99 4 L 224.761719 4 L 224.761719 131 L 99 131 Z M 99 4 "/>
</clipPath>
<clipPath id="clip3">
  <path d="M 40 0.0585938 L 55 0.0585938 L 55 32 L 40 32 Z M 40 0.0585938 "/>
</clipPath>
</defs>
<g id="surface1">
<g clip-path="url(#clip1)" clip-rule="nonzero">
<path style=" stroke:none;fill-rule:nonzero;fill:rgb(92.158508%,92.158508%,92.158508%);fill-opacity:1;" d="M 93.730469 212.980469 C 93.730469 219.375 98.914062 224.554688 105.304688 224.554688 L 120.734375 224.554688 C 127.125 224.554688 132.304688 219.375 132.304688 212.980469 L 132.304688 189.839844 L 93.730469 189.839844 Z M 93.730469 212.980469 "/>
</g>
<path style=" stroke:none;fill-rule:nonzero;fill:rgb(78.819275%,87.449646%,100%);fill-opacity:1;" d="M 75.554688 148.015625 C 72.167969 145.839844 69 143.367188 66.050781 140.652344 C 63.902344 148.960938 56.425781 155.125 47.445312 155.125 C 36.792969 155.125 28.160156 146.488281 28.160156 135.835938 C 28.160156 125.1875 36.792969 116.550781 47.445312 116.550781 C 48.035156 116.550781 48.589844 116.671875 49.164062 116.722656 C 45.617188 108.371094 43.625 99.195312 43.625 89.550781 L 38.710938 89.550781 L 36.046875 102.226562 C 35.480469 104.925781 32.351562 106.175781 30.082031 104.613281 L 19.429688 97.265625 L 7.855469 108.835938 L 15.207031 119.492188 C 16.769531 121.761719 15.519531 124.890625 12.820312 125.457031 L 0.144531 128.121094 L 0.144531 143.550781 L 12.820312 146.214844 C 15.519531 146.785156 16.769531 149.910156 15.207031 152.179688 L 7.855469 162.835938 L 19.429688 174.410156 L 30.085938 167.0625 C 32.355469 165.5 35.484375 166.75 36.050781 169.445312 L 38.714844 182.125 L 54.144531 182.125 L 56.808594 169.445312 C 57.378906 166.75 60.503906 165.5 62.773438 167.0625 L 73.429688 174.410156 L 85.539062 162.300781 C 84.332031 156.453125 80.71875 151.328125 75.554688 148.015625 Z M 75.554688 148.015625 "/>
<path style=" stroke:none;fill-rule:nonzero;fill:rgb(100%,70.588684%,12.159729%);fill-opacity:1;" d="M 182.449219 89.550781 C 182.449219 48.601562 146.996094 15.929688 105.109375 20.554688 C 72.851562 24.117188 46.957031 50.484375 43.90625 82.796875 C 41.328125 110.105469 54.582031 134.546875 75.554688 148.015625 C 81.9375 152.109375 86.015625 158.957031 86.015625 166.535156 L 86.015625 182.125 C 86.015625 188.515625 91.199219 193.695312 97.589844 193.695312 L 128.449219 193.695312 C 134.839844 193.695312 140.019531 188.515625 140.019531 182.125 L 140.019531 166.855469 C 140.019531 159.097656 144.1875 152.089844 150.703125 147.871094 C 169.808594 135.5 182.449219 114.003906 182.449219 89.550781 Z M 182.449219 89.550781 "/>
<g clip-path="url(#clip2)" clip-rule="nonzero">
<path style=" stroke:none;fill-rule:nonzero;fill:rgb(10.978699%,78.42865%,92.158508%);fill-opacity:1;" d="M 206.339844 48.742188 L 218.460938 39.652344 L 204.574219 21.136719 L 192.453125 30.226562 C 186.957031 34.351562 179.214844 29.769531 180.1875 22.964844 L 182.332031 7.964844 L 159.417969 4.6875 L 157.273438 19.691406 C 156.300781 26.492188 147.585938 28.726562 143.464844 23.226562 L 134.371094 11.101562 L 115.859375 24.988281 L 124.949219 37.113281 C 129.074219 42.609375 124.488281 50.351562 117.6875 49.378906 L 102.683594 47.234375 L 99.410156 70.148438 L 114.410156 72.292969 C 121.214844 73.261719 123.449219 81.976562 117.949219 86.101562 L 105.824219 95.191406 L 119.710938 113.707031 L 131.835938 104.617188 C 137.332031 100.492188 145.074219 105.074219 144.101562 111.878906 L 141.957031 126.878906 L 164.867188 130.15625 L 167.011719 115.152344 C 167.984375 108.347656 176.699219 106.117188 180.820312 111.617188 L 189.914062 123.738281 L 208.429688 109.855469 L 199.335938 97.730469 C 195.214844 92.234375 199.796875 84.492188 206.601562 85.464844 L 221.601562 87.609375 L 224.878906 64.691406 L 209.878906 62.546875 C 203.074219 61.578125 200.839844 52.867188 206.339844 48.742188 Z M 162.148438 94.421875 C 147.238281 94.421875 135.148438 82.332031 135.148438 67.417969 C 135.148438 52.507812 147.238281 40.417969 162.148438 40.417969 C 177.0625 40.417969 189.148438 52.507812 189.148438 67.417969 C 189.148438 82.332031 177.0625 94.421875 162.148438 94.421875 Z M 162.148438 94.421875 "/>
</g>
<path style=" stroke:none;fill-rule:nonzero;fill:rgb(61.959839%,61.959839%,61.959839%);fill-opacity:1;" d="M 93.730469 201.410156 L 132.304688 201.410156 L 132.304688 209.125 L 93.730469 209.125 Z M 93.730469 201.410156 "/>
<path style=" stroke:none;fill-rule:nonzero;fill:rgb(100%,66.668701%,0%);fill-opacity:1;" d="M 109.160156 170.550781 L 116.875 170.550781 L 116.875 182.125 L 109.160156 182.125 Z M 109.160156 170.550781 "/>
<path style=" stroke:none;fill-rule:nonzero;fill:rgb(100%,66.668701%,0%);fill-opacity:1;" d="M 116.875 162.835938 L 109.160156 162.835938 C 109.160156 152.640625 102.945312 143.621094 93.332031 139.847656 C 72.484375 131.6875 59.015625 111.941406 59.015625 89.550781 C 59.015625 70.902344 68.441406 53.824219 84.222656 43.855469 L 88.34375 50.378906 C 74.8125 58.925781 66.730469 73.566406 66.730469 89.550781 C 66.730469 108.742188 78.277344 125.664062 96.148438 132.667969 C 108.742188 137.597656 116.875 149.441406 116.875 162.835938 Z M 116.875 162.835938 "/>
<path style=" stroke:none;fill-rule:nonzero;fill:rgb(100%,66.668701%,0%);fill-opacity:1;" d="M 209.449219 151.265625 L 190.164062 151.265625 C 188.035156 151.265625 186.308594 149.542969 186.308594 147.410156 C 186.308594 145.277344 188.03125 143.550781 190.164062 143.550781 L 209.449219 143.550781 C 211.578125 143.550781 213.308594 145.277344 213.308594 147.410156 C 213.308594 149.542969 211.582031 151.265625 209.449219 151.265625 Z M 209.449219 151.265625 "/>
<path style=" stroke:none;fill-rule:nonzero;fill:rgb(100%,66.668701%,0%);fill-opacity:1;" d="M 200.164062 186.472656 L 182.945312 172.125 C 181.308594 170.765625 181.089844 168.335938 182.449219 166.699219 L 182.449219 166.695312 C 183.8125 165.058594 186.246094 164.835938 187.882812 166.199219 L 205.101562 180.542969 C 206.734375 181.902344 206.957031 184.335938 205.59375 185.96875 L 205.59375 185.976562 C 204.230469 187.613281 201.796875 187.835938 200.164062 186.472656 Z M 200.164062 186.472656 "/>
<path style=" stroke:none;fill-rule:nonzero;fill:rgb(100%,66.668701%,0%);fill-opacity:1;" d="M 167.019531 201.410156 C 164.886719 201.410156 163.164062 199.6875 163.164062 197.554688 L 163.164062 178.265625 C 163.164062 176.136719 164.886719 174.410156 167.019531 174.410156 C 169.148438 174.410156 170.878906 176.132812 170.878906 178.265625 L 170.878906 197.554688 C 170.878906 199.6875 169.152344 201.410156 167.019531 201.410156 Z M 167.019531 201.410156 "/>
<path style=" stroke:none;fill-rule:nonzero;fill:rgb(100%,66.668701%,0%);fill-opacity:1;" d="M 1.15625 70.261719 C 0.640625 68.199219 1.898438 66.105469 3.960938 65.585938 L 27.339844 59.742188 C 29.40625 59.226562 31.5 60.484375 32.015625 62.546875 C 32.53125 64.613281 31.273438 66.707031 29.210938 67.222656 L 5.832031 73.066406 C 3.765625 73.582031 1.675781 72.328125 1.15625 70.261719 Z M 1.15625 70.261719 "/>
<path style=" stroke:none;fill-rule:nonzero;fill:rgb(100%,66.668701%,0%);fill-opacity:1;" d="M 30.496094 44.160156 L 9.765625 29.351562 C 8.035156 28.117188 7.632812 25.707031 8.871094 23.976562 C 10.109375 22.242188 12.515625 21.84375 14.25 23.082031 L 34.972656 37.882812 C 36.710938 39.117188 37.109375 41.53125 35.871094 43.261719 C 34.632812 44.992188 32.226562 45.394531 30.496094 44.160156 Z M 30.496094 44.160156 "/>
<g clip-path="url(#clip3)" clip-rule="nonzero">
<path style=" stroke:none;fill-rule:nonzero;fill:rgb(100%,66.668701%,0%);fill-opacity:1;" d="M 46.613281 28.910156 L 40.632812 5.523438 C 40.105469 3.457031 41.351562 1.359375 43.410156 0.832031 L 43.414062 0.832031 C 45.476562 0.304688 47.578125 1.550781 48.105469 3.613281 L 54.082031 27 C 54.613281 29.0625 53.367188 31.160156 51.304688 31.691406 L 51.300781 31.691406 C 49.238281 32.21875 47.136719 30.972656 46.613281 28.910156 Z M 46.613281 28.910156 "/>
</g>
</g>
</svg>
